  <svg xmlns="http://www.w3.org/2000/svg" xmlns:xlink="http://www.w3.org/1999/xlink" width="60"
                  zoomAndPan="magnify" viewBox="0 0 810 809.999993" height="60" preserveAspectRatio="xMidYMid meet"
                  version="1.0">
                  <defs>
                    <clipPath id="c276a0f782">
                      <path d="M 0 0 L 810 0 L 810 789.75 L 0 789.75 Z M 0 0 " clip-rule="nonzero" />
                    </clipPath>
                  </defs>
                  <g clip-path="url(#c276a0f782)">
                    <path fill="#34495e"
                      d="M 82.429688 166.167969 C 82.429688 166.167969 115.941406 166.011719 115.941406 166.011719 C 118.164062 173.953125 121.339844 181.734375 125.628906 189.039062 L 101.964844 212.863281 C 99.105469 215.882812 99.105469 220.488281 101.964844 223.503906 L 129.441406 250.664062 C 132.300781 253.523438 137.066406 253.523438 140.082031 250.664062 L 163.746094 226.839844 C 171.054688 230.96875 178.835938 234.144531 186.777344 236.210938 L 186.933594 269.722656 C 186.933594 273.851562 190.269531 277.1875 194.398438 277.1875 L 232.992188 277.027344 C 237.125 277.027344 240.457031 273.535156 240.457031 269.40625 L 240.300781 235.894531 C 248.242188 233.667969 255.863281 230.492188 263.171875 226.363281 L 286.992188 250.027344 C 289.851562 252.886719 294.617188 252.886719 297.636719 249.867188 L 324.792969 222.394531 C 327.652344 219.375 327.652344 214.769531 324.792969 211.75 L 300.96875 188.085938 C 305.101562 180.78125 308.277344 173 310.339844 165.058594 L 343.851562 164.898438 C 347.347656 164.898438 350.207031 162.515625 351 159.5 C 351.160156 158.863281 351.316406 158.226562 351.316406 157.433594 L 351.160156 118.679688 C 351 114.710938 347.824219 111.214844 343.695312 111.214844 L 310.183594 111.375 C 307.957031 103.433594 304.78125 95.652344 300.492188 88.34375 L 324.160156 64.523438 C 327.015625 61.503906 327.015625 56.898438 324.160156 53.878906 L 296.683594 26.722656 C 293.664062 23.863281 289.058594 23.863281 286.042969 26.722656 L 262.375 50.546875 C 255.070312 46.417969 247.289062 43.238281 239.347656 41.175781 L 239.1875 7.664062 C 239.1875 3.535156 235.851562 0.199219 231.722656 0.199219 L 192.96875 0.355469 C 188.839844 0.355469 185.503906 3.691406 185.503906 7.820312 L 185.664062 41.332031 C 177.722656 43.558594 170.101562 46.734375 162.792969 50.863281 L 138.96875 27.199219 C 135.953125 24.339844 131.347656 24.339844 128.328125 27.355469 L 101.171875 54.992188 C 98.3125 58.011719 98.3125 62.617188 101.171875 65.632812 L 124.992188 89.296875 C 120.863281 96.605469 117.6875 104.386719 115.625 112.328125 L 82.113281 112.488281 C 78.617188 112.488281 75.757812 114.710938 74.964844 117.886719 C 74.804688 118.523438 74.648438 119.316406 74.648438 119.953125 L 74.804688 158.703125 C 74.964844 162.832031 78.300781 166.167969 82.429688 166.167969 Z M 276.988281 138.691406 C 276.988281 173.953125 248.398438 202.539062 213.140625 202.539062 C 177.882812 202.539062 149.292969 173.953125 149.292969 138.691406 C 152.152344 54.199219 273.96875 54.199219 276.988281 138.691406 Z M 600.035156 688.0625 L 209.964844 688.0625 L 209.964844 628.34375 L 600.035156 628.34375 Z M 122.453125 774.78125 C 122.453125 782.882812 128.964844 789.550781 137.066406 789.550781 L 672.933594 789.550781 C 681.035156 789.550781 687.386719 782.882812 687.386719 774.78125 L 687.386719 571.167969 L 122.453125 571.167969 Z M 192.652344 619.609375 C 192.652344 614.84375 196.625 610.875 201.386719 610.875 L 608.929688 610.875 C 613.695312 610.875 617.664062 614.84375 617.664062 619.609375 L 617.664062 696.796875 C 617.664062 701.5625 613.695312 705.535156 608.929688 705.535156 L 201.230469 705.535156 C 196.464844 705.535156 192.492188 701.5625 192.492188 696.796875 L 192.492188 619.609375 Z M 687.070312 455.226562 C 687.230469 455.386719 756.160156 555.445312 756.316406 555.605469 L 53.523438 555.605469 L 122.613281 455.226562 Z M 81.636719 487.152344 L 0 503.988281 L 96.40625 465.550781 Z M 713.277344 465.394531 L 810 503.988281 L 728.207031 487.152344 Z M 528.40625 199.046875 C 524.910156 190.785156 528.722656 181.257812 536.980469 177.761719 C 545.242188 174.269531 554.613281 178.082031 558.265625 186.339844 L 602.417969 290.050781 C 605.910156 298.308594 602.101562 307.679688 593.839844 311.332031 C 585.742188 314.828125 576.054688 311.015625 572.558594 302.757812 Z M 462.8125 227 C 459.316406 218.738281 463.128906 209.367188 471.230469 205.875 C 479.488281 202.382812 488.859375 206.191406 492.511719 214.453125 L 536.664062 318.164062 C 540.160156 326.421875 536.347656 335.792969 528.089844 339.445312 C 519.988281 342.941406 510.457031 339.128906 506.964844 330.867188 Z M 397.058594 254.953125 C 393.566406 246.691406 397.375 237.320312 405.636719 233.667969 C 413.734375 230.175781 423.265625 233.988281 426.917969 242.246094 L 471.070312 345.957031 C 474.566406 354.214844 470.753906 363.746094 462.492188 367.238281 C 454.234375 370.734375 444.863281 366.921875 441.210938 358.664062 Z M 361.007812 270.355469 L 405.160156 374.070312 C 408.652344 382.328125 404.839844 391.699219 396.582031 395.351562 C 388.324219 398.84375 378.953125 395.035156 375.300781 386.773438 L 331.148438 283.0625 C 327.652344 274.804688 331.464844 265.433594 339.722656 261.78125 C 347.980469 258.285156 357.511719 262.097656 361.007812 270.355469 Z M 607.339844 261.941406 L 582.089844 202.382812 L 590.980469 198.570312 L 616.234375 258.285156 Z M 541.589844 289.894531 L 516.335938 230.492188 L 523.480469 227.476562 L 548.734375 286.875 Z M 475.835938 317.84375 L 450.582031 258.285156 L 457.730469 255.269531 L 482.980469 314.667969 Z M 410.082031 345.796875 L 384.828125 286.398438 L 391.976562 283.382812 L 417.230469 342.78125 Z M 334.957031 377.722656 L 309.707031 318.164062 L 326.222656 311.175781 L 351.476562 370.734375 Z M 243.792969 328.167969 C 218.859375 338.808594 207.265625 367.398438 217.90625 392.492188 C 228.386719 417.429688 257.136719 428.863281 282.070312 418.382812 L 327.175781 399.164062 L 288.742188 309.109375 Z M 272.222656 389.953125 C 249.828125 401.546875 232.199219 368.351562 254.277344 356.28125 C 276.671875 344.6875 294.300781 377.722656 272.222656 389.953125 Z M 599.875 179.828125 C 596.699219 172.203125 599.082031 163.46875 605.753906 158.546875 L 635.929688 136.46875 L 692.152344 268.929688 L 655.304688 275.441406 C 647.207031 276.867188 639.105469 272.582031 635.929688 264.957031 Z M 708.035156 266.070312 L 648.953125 126.941406 L 661.660156 124.714844 C 678.175781 121.855469 694.535156 130.75 701.207031 146.15625 L 730.589844 215.085938 C 737.101562 230.492188 732.175781 248.597656 718.675781 258.445312 Z M 744.882812 209.527344 L 765.53125 200.792969 C 784.90625 192.691406 793.800781 170.296875 785.542969 151.082031 C 777.441406 131.703125 755.046875 122.808594 735.828125 130.910156 L 715.183594 139.644531 C 715.5 139.964844 744.566406 208.574219 744.722656 209.050781 C 744.882812 209.210938 744.882812 209.367188 744.882812 209.527344 Z M 744.566406 152.191406 C 762.671875 144.886719 774.105469 171.726562 756.160156 179.511719 C 737.894531 186.976562 726.777344 160.292969 744.566406 152.191406 Z M 744.566406 152.191406 "
                      fill-opacity="1" fill-rule="nonzero" />
                  </g>
                </svg>