 <svg xmlns="http://www.w3.org/2000/svg" xmlns:xlink="http://www.w3.org/1999/xlink" width="60"
                  zoomAndPan="magnify" viewBox="0 0 810 809.999993" height="60" preserveAspectRatio="xMidYMid meet"
                  version="1.0">
                  <path stroke-linecap="butt" transform="matrix(17.608694, 0, 0, 17.608694, -35.217384, -35.217367)"
                    fill="none" stroke-linejoin="round" d="M 29.999974 4.999893 L 29.999974 1.999999 " stroke="#34495e"
                    stroke-width="2" stroke-opacity="1" stroke-miterlimit="10" />
                  <path fill="#34495e"
                    d="M 501.847656 598.695312 L 581.085938 757.175781 L 616.304688 757.175781 L 537.066406 598.695312 Z M 501.847656 598.695312 "
                    fill-opacity="1" fill-rule="nonzero" />
                  <path fill="#34495e"
                    d="M 449.023438 598.695312 L 369.78125 757.175781 L 405 757.175781 L 484.238281 598.695312 Z M 449.023438 598.695312 "
                    fill-opacity="1" fill-rule="nonzero" />
                  <path fill="#34495e"
                    d="M 176.085938 176.085938 C 127.539062 176.085938 88.042969 136.589844 88.042969 88.042969 C 88.042969 39.496094 127.539062 0 176.085938 0 C 224.632812 0 264.128906 39.496094 264.128906 88.042969 C 264.128906 136.589844 224.632812 176.085938 176.085938 176.085938 Z M 176.085938 176.085938 "
                    fill-opacity="1" fill-rule="nonzero" />
                  <path fill="#34495e"
                    d="M 466.628906 193.695312 L 238.015625 193.695312 L 176.085938 316.957031 L 114.738281 193.695312 L 96.847656 193.695312 C 43.441406 193.695312 0 237.136719 0 290.542969 L 0 528.261719 C 0 547.699219 15.796875 563.476562 35.21875 563.476562 C 54.640625 563.476562 70.433594 547.699219 70.433594 528.261719 L 70.433594 326.589844 C 70.433594 321.816406 74.46875 317.785156 79.238281 317.785156 C 84.011719 317.785156 88.042969 321.816406 88.042969 326.589844 L 88.042969 762.457031 C 88.042969 789.996094 102.746094 810 130.304688 810 C 156.402344 810 176.085938 789.554688 176.085938 762.457031 L 176.085938 558.195312 C 176.085938 553.335938 180.03125 549.390625 184.890625 549.390625 C 189.75 549.390625 193.695312 553.335938 193.695312 558.195312 L 193.695312 767.597656 C 193.765625 767.703125 193.90625 767.773438 193.976562 767.878906 C 196.390625 792.234375 215.144531 810 239.476562 810 C 267.019531 810 281.738281 789.996094 281.738281 762.457031 L 281.738281 281.738281 L 466.628906 281.738281 C 490.949219 281.738281 510.652344 262.035156 510.652344 237.71875 C 510.652344 213.398438 490.949219 193.695312 466.628906 193.695312 Z M 466.628906 193.695312 "
                    fill-opacity="1" fill-rule="nonzero" />
                  <path fill="#34495e"
                    d="M 792.390625 35.21875 L 287.285156 35.21875 C 294.945312 51.257812 299.347656 69.113281 299.347656 88.042969 C 299.347656 114.226562 291.070312 138.492188 277.089844 158.476562 L 466.628906 158.476562 C 510.316406 158.476562 545.871094 194.03125 545.871094 237.71875 C 545.871094 281.40625 510.316406 316.957031 466.628906 316.957031 L 316.957031 316.957031 L 316.957031 563.476562 L 792.390625 563.476562 C 802.128906 563.476562 810 555.605469 810 545.871094 L 810 52.824219 C 810 43.105469 802.128906 35.21875 792.390625 35.21875 Z M 792.390625 35.21875 "
                    fill-opacity="1" fill-rule="nonzero" />
                </svg>